# xmcd
#
# Track frame offsets: 
#        150
#        28250
#        53310
#        85060
#        106130
#        126930
#        148560
#        168615
#        197725
#        219592
#        254560
#        282075
#        305565
#        323380
#
# Disc length: 4509 seconds
#
# Revision: 1
# Processed by: cddbd v1.5.2PL0 Copyright (c) Steve Scherf et al.
# Submitted via: ExactAudioCopy v0.99pb5
#
DISCID=c3119b0e
DTITLE=Champion Jack Dupree - CHAMPION 1980-1988
DYEAR=1988
DGENRE=Blues
TTITLE0=One Scotch, one bourbon, one beer
TTITLE1=Thank you god for freedom
TTITLE2=The blues ad lib
TTITLE3=Good lord born on christmas
TTITLE4=Jump for Jack
TTITLE5=Georgiana
TTITLE6=Bring me flowers
TTITLE7=When Victoria Spivey was living
TTITLE8=Hungarian stew
TTITLE9=Nobody loves me
TTITLE10=Rocky mountain
TTITLE11=Ramblin' boogie
TTITLE12=I had that dream
TTITLE13=Baby please don't go
EXTD=ID3G: 0
EXTT0=
EXTT1=
EXTT2=
EXTT3=
EXTT4=
EXTT5=
EXTT6=
EXTT7=
EXTT8=
EXTT9=
EXTT10=
EXTT11=
EXTT12=
EXTT13=
PLAYORDER=
